HIERARCHY
ROOT Hips
{
	OFFSET 0.00000 0.00000 0.00000
	CHANNELS 6 Xposition Yposition Zposition Zrotation Yrotation Xrotation 
	JOINT LHipJoint
	{
		OFFSET 0 0 0
		CHANNELS 3 Zrotation Yrotation Xrotation
		JOINT LeftHip
		{
			OFFSET 1.37959 -1.78713 0.86582
			CHANNELS 3 Zrotation Yrotation Xrotation
			JOINT LeftKnee
			{
				OFFSET 2.54611 -6.99539 0.00000
				CHANNELS 3 Zrotation Yrotation Xrotation
				JOINT LeftAnkle
				{
					OFFSET 2.59951 -7.14211 0.00000
					CHANNELS 3 Zrotation Yrotation Xrotation
					JOINT LeftToe
					{
						OFFSET 0.18493 -0.50810 1.96120
						CHANNELS 3 Zrotation Yrotation Xrotation
						End Site
						{
							OFFSET 0.00000 -0.00000 1.02054
						}
					}
				}
			}
		}
	}
	JOINT RHipJoint
	{
		OFFSET 0 0 0
		CHANNELS 3 Zrotation Yrotation Xrotation
		JOINT RightHip
		{
			OFFSET -1.33564 -1.78713 0.86582
			CHANNELS 3 Zrotation Yrotation Xrotation
			JOINT RightKnee
			{
				OFFSET -2.52705 -6.94302 0.00000
				CHANNELS 3 Zrotation Yrotation Xrotation
				JOINT RightAnkle
				{
					OFFSET -2.55964 -7.03257 0.00000
					CHANNELS 3 Zrotation Yrotation Xrotation
					JOINT RightToe
					{
						OFFSET -0.25804 -0.70896 2.12109
						CHANNELS 3 Zrotation Yrotation Xrotation
						End Site
						{
							OFFSET -0.00000 -0.00000 1.11821
						}
					}
				}
			}
		}
	}
	JOINT lowerback
	{
		OFFSET 0 0 0
		CHANNELS 3 Zrotation Yrotation Xrotation
		JOINT Chest
		{
			OFFSET -0.02031 2.24248 -0.18900
			CHANNELS 3 Zrotation Yrotation Xrotation
			JOINT Chest2
			{
				OFFSET 0.08342 2.24689 -0.03799
				CHANNELS 3 Zrotation Yrotation Xrotation
				JOINT lowerneck
				{
					OFFSET 0 0 0
					CHANNELS 3 Zrotation Yrotation Xrotation
					JOINT Neck
					{
						OFFSET -0.11607 1.55844 0.24628
						CHANNELS 3 Zrotation Yrotation Xrotation
						JOINT Head
						{
							OFFSET 0.06877 1.60174 -0.17013
							CHANNELS 3 Zrotation Yrotation Xrotation
							End Site
							{
								OFFSET 0.03358 1.61266 -0.08543
							}
						}
					}
				}
				JOINT LeftCollar
				{
					OFFSET 0 0 0
					CHANNELS 3 Zrotation Yrotation Xrotation
					JOINT LeftShoulder
					{
						OFFSET 3.47537 0.55866 -0.72348
CHANNELS 3 Zrotation Xrotation Yrotation
						JOINT LeftElbow
						{
OFFSET 0 -5.381540 0.000000
CHANNELS 3 Zrotation Xrotation Yrotation
							JOINT LeftWrist
							{
OFFSET 0 -3.333120 0.000000
CHANNELS 3 Zrotation Xrotation Yrotation
								JOINT lhand
								{
									OFFSET 0 0 0
CHANNELS 3 Zrotation Xrotation Yrotation
									JOINT LFingers
									{
OFFSET 0 -0.710790 0.000000
CHANNELS 3 Zrotation Xrotation Yrotation
										End Site
										{
OFFSET 0 -0.573060 0.000000
										}
									}
								}
								JOINT LThumb
								{
OFFSET 0 0.000000 0.000000
CHANNELS 3 Zrotation Xrotation Yrotation
									End Site
									{
OFFSET 0 -0.581810 0.581810
									}
								}
							}
						}
					}
				}
				JOINT RightCollar
				{
					OFFSET 0 0 0
					CHANNELS 3 Zrotation Yrotation Xrotation
					JOINT RightShoulder
					{
						OFFSET -3.27844 0.90739 -0.35708
CHANNELS 3 Zrotation Xrotation Yrotation
						JOINT RightElbow
						{
OFFSET 0 -5.169540 0.000000
CHANNELS 3 Zrotation Xrotation Yrotation
							JOINT RightWrist
							{
OFFSET 0 -3.382870 0.000000
CHANNELS 3 Zrotation Xrotation Yrotation
								JOINT rhand
								{
									OFFSET 0 0 0
CHANNELS 3 Zrotation Xrotation Yrotation
									JOINT RFingers
									{
OFFSET 0 -0.817970 0.000000
CHANNELS 3 Zrotation Xrotation Yrotation
										End Site
										{
OFFSET 0 -0.659470 0.000000
										}
									}
								}
								JOINT RThumb
								{
OFFSET 0 0.000000 0.000000
CHANNELS 3 Zrotation Xrotation Yrotation
									End Site
									{
OFFSET 0 -0.669530 0.669530
									}
								}
							}
						}
					}
				}
			}
		}
	}
}
MOTION
Frames: 9
Frame Time: 0.008333333333333333
15.139564 16.634450 3.477454 -21.738693 -75.111101 -327.838179 0.000000 0.000000 0.000000 -4.883489 0.907807 -36.422798 12.897272 18.744679 68.806083 1.154728 -9.317302 -19.344389 0.661888 -5.192856 -14.461727 0.000000 0.000000 0.000000 9.348751 -0.225584 -27.983500 -4.982896 -13.364336 40.748465 -1.082860 10.392978 -18.887866 -1.799849 8.434703 -24.043174 -1.677562 0.059655 21.252986 1.718315 -0.570782 7.076917 2.948584 -0.478005 -4.142486 -14.185847 -16.739276 -4.059447 17.687570 -24.271977 11.755809 5.203452 -11.441221 8.261422 0.000000 0.000000 0.000000 12.251151 7.644553 7.320511 16.655327 -26.401113 3.932884 6.950673 10.275912 -32.161212 0.000000 0.000000 0.000000 -7.125000 0.000000 0.000000 -28.802029 59.952144 11.056990 0.000000 0.000000 0.000000 -52.194524 -4.019576 -80.029823 -18.319703 -28.564210 -4.701326 -93.788380 19.926426 -8.553827 0.000000 0.000000 0.000000 7.125000 0.000000 0.000000 49.358075 30.960813 27.999334
15.103978 16.649616 3.537262 -21.087489 -75.125741 -328.508272 0.000000 0.000000 0.000000 -4.326060 0.790159 -36.704376 12.811900 18.713053 68.540139 1.231262 -7.597866 -19.862457 0.442368 -4.203821 -11.660227 0.000000 0.000000 0.000000 9.042879 -0.291887 -27.447350 -4.884457 -13.252052 40.320312 -1.098744 10.192149 -18.985588 -1.587296 7.937224 -22.529134 -1.965740 0.068938 21.510963 1.790535 -0.622248 7.111855 3.208949 -0.507019 -4.228195 -14.602143 -16.790649 -4.734002 17.422289 -24.371657 12.800123 5.080516 -11.433770 8.761073 0.000000 0.000000 0.000000 11.953338 7.456219 7.158912 16.551304 -26.262281 3.886792 7.330036 11.020051 -32.002591 0.000000 0.000000 0.000000 -7.125000 0.000000 0.000000 -28.274109 59.902632 10.800396 0.000000 0.000000 0.000000 -52.452025 -3.793306 -80.232371 -18.047501 -28.217293 -4.571976 -93.972719 19.692231 -8.594492 0.000000 0.000000 0.000000 7.125000 0.000000 0.000000 50.882882 32.718968 25.778595
15.070983 16.662354 3.591635 -21.473328 -75.066399 -328.104332 0.000000 0.000000 0.000000 -3.432779 0.798911 -37.135533 12.722751 18.679616 68.262001 1.283975 -6.039929 -20.298382 0.267354 -3.292701 -9.097678 0.000000 0.000000 0.000000 9.044253 -0.075628 -26.925853 -4.778012 -13.128894 39.853780 -1.120199 9.870728 -19.114603 -1.387713 7.447608 -21.051089 -2.050841 0.105495 21.737259 1.935780 -0.591532 7.122977 3.411565 -0.494648 -4.330412 -14.796241 -16.741316 -4.931388 17.260053 -24.249900 12.940459 5.058036 -11.372600 8.823389 0.000000 0.000000 0.000000 11.670917 7.242107 7.044357 16.451697 -26.129157 3.842768 7.633421 11.847988 -31.720812 0.000000 0.000000 0.000000 -7.125000 0.000000 0.000000 -27.717010 59.726819 10.450900 0.000000 0.000000 0.000000 -52.735382 -3.561176 -80.585050 -17.826033 -27.933557 -4.467513 -94.350969 19.228862 -8.957209 0.000000 0.000000 0.000000 7.125000 0.000000 0.000000 52.561007 34.421189 23.547949
15.041965 16.670603 3.640518 -23.028512 -74.922219 -326.498599 0.000000 0.000000 0.000000 -2.172315 0.937259 -37.714024 12.628238 18.643675 67.966611 1.318506 -4.633231 -20.680954 0.162595 -2.595132 -7.153749 0.000000 0.000000 0.000000 9.393218 0.413097 -26.444850 -4.666932 -12.998478 39.363070 -1.143105 9.429194 -19.243860 -1.239202 7.058978 -19.890123 -1.845989 0.147081 21.912023 2.114439 -0.492022 7.127089 3.466360 -0.447591 -4.421931 -14.571671 -16.520729 -4.526751 17.197462 -23.773902 11.827267 5.151433 -11.209468 8.261675 0.000000 0.000000 0.000000 11.471119 7.009852 6.971457 16.371683 -26.022004 3.807542 7.727227 12.630710 -31.266583 0.000000 0.000000 0.000000 -7.125000 0.000000 0.000000 -27.222560 59.350742 9.997216 0.000000 0.000000 0.000000 -52.973034 -3.366494 -81.029144 -17.667514 -27.729335 -4.393390 -94.969866 18.201006 -9.609125 0.000000 0.000000 0.000000 7.125000 0.000000 0.000000 54.509738 36.122458 21.118713
15.019641 16.673375 3.691295 -25.423987 -74.643896 -324.089628 0.000000 0.000000 0.000000 -0.685347 1.112861 -38.260602 12.493563 18.591439 67.544786 1.343164 -3.214768 -21.105041 0.118822 -2.211827 -6.091963 0.000000 0.000000 0.000000 10.046238 0.813182 -26.044035 -4.560856 -12.871171 38.888790 -1.162292 8.957979 -19.352563 -1.240588 7.062771 -19.901358 -1.268186 0.124976 22.078944 2.256993 -0.400829 7.161086 3.269163 -0.405131 -4.479711 -13.952649 -16.159238 -4.942594 16.589237 -23.032388 11.160386 4.997571 -10.868987 7.835253 0.000000 0.000000 0.000000 11.459081 6.805725 6.649944 16.316821 -25.948320 3.783540 7.499535 12.897141 -30.833450 0.000000 0.000000 0.000000 -7.125000 0.000000 0.000000 -27.084092 58.918411 9.657392 0.000000 0.000000 0.000000 -52.980330 -3.157479 -80.928685 -17.617175 -27.664259 -4.370045 -96.104243 13.724564 -9.898975 0.000000 0.000000 0.000000 7.125000 0.000000 0.000000 58.745063 39.336560 15.157930
14.994857 16.677121 3.749042 -26.437604 -74.490782 -323.048574 0.000000 0.000000 0.000000 0.275722 1.175965 -38.703908 12.315734 18.520394 66.985605 1.364236 -1.595346 -21.653825 0.124302 -2.266778 -6.243878 0.000000 0.000000 0.000000 10.266690 0.946089 -25.651831 -4.460827 -12.749195 38.437471 -1.182197 8.622120 -19.485662 -1.319211 7.271266 -20.522903 -0.918045 0.078577 22.267032 2.227903 -0.392715 7.163820 3.038703 -0.399983 -4.576033 -13.600239 -15.878007 -5.083521 16.271816 -22.544059 10.880663 4.935963 -10.644541 7.605742 0.000000 0.000000 0.000000 11.594137 6.720502 6.047314 16.303473 -25.930398 3.777681 7.289729 12.910234 -30.608502 0.000000 0.000000 0.000000 -7.125000 0.000000 0.000000 -27.105530 58.673765 9.503715 0.000000 0.000000 0.000000 -52.812958 -2.794809 -80.602870 -17.569860 -27.602925 -4.348083 -97.289973 9.290047 -10.028559 0.000000 0.000000 0.000000 7.125000 0.000000 0.000000 63.641643 42.148999 8.497404
14.966416 16.682442 3.809401 -26.466337 -74.459775 -322.955442 0.000000 0.000000 0.000000 0.855035 1.179159 -39.103821 12.104623 18.433855 66.319386 1.381439 0.025150 -22.263641 0.152043 -2.508327 -6.913054 0.000000 0.000000 0.000000 10.159091 0.967070 -25.280364 -4.365175 -12.630856 38.002314 -1.202768 8.354616 -19.633981 -1.437923 7.578351 -21.441882 -0.818386 0.039199 22.408165 2.102747 -0.431570 7.169097 2.858888 -0.417243 -4.641666 -13.485588 -15.712074 -5.135266 16.154975 -22.310557 10.970449 4.921650 -10.530716 7.578712 0.000000 0.000000 0.000000 11.755000 6.672122 5.432833 16.330555 -25.966783 3.789551 6.962178 12.830646 -30.498969 0.000000 0.000000 0.000000 -7.125000 0.000000 0.000000 -27.342102 58.505279 9.481925 0.000000 0.000000 0.000000 -52.546206 -2.378088 -80.159625 -17.560693 -27.590959 -4.343822 -98.383702 5.338808 -10.038718 0.000000 0.000000 0.000000 7.125000 0.000000 0.000000 68.478366 44.381214 2.048673
14.932711 16.690102 3.869078 -25.690097 -74.567894 -323.604741 0.000000 0.000000 0.000000 1.114025 1.157637 -39.504416 11.863288 18.332156 65.554746 1.393915 1.476442 -22.890032 0.182611 -2.751924 -7.588908 0.000000 0.000000 0.000000 9.759736 0.990489 -24.943312 -4.273179 -12.515295 37.580124 -1.224071 8.109342 -19.792147 -1.571504 7.909421 -22.439395 -1.029007 0.034676 22.436690 1.930501 -0.494165 7.206158 2.809424 -0.447811 -4.612630 -13.622379 -15.709885 -5.241854 16.194079 -22.374320 11.474203 4.923912 -10.540711 7.791521 0.000000 0.000000 0.000000 11.842400 6.596540 5.034207 16.403656 -26.064980 3.821651 6.382260 12.780453 -30.444326 0.000000 0.000000 0.000000 -7.125000 0.000000 0.000000 -27.875548 58.330114 9.566991 0.000000 0.000000 0.000000 -52.228268 -1.983548 -79.672067 -17.625768 -27.675222 -4.374025 -99.248363 2.325040 -9.945044 0.000000 0.000000 0.000000 7.125000 0.000000 0.000000 72.630669 45.787493 -3.376839
14.899357 16.696570 3.921323 -26.156047 -74.509696 -323.030501 0.000000 0.000000 0.000000 1.834805 1.128122 -39.910341 11.593065 18.212297 64.691942 1.373505 2.610175 -23.227121 0.172581 -2.675717 -7.377223 0.000000 0.000000 0.000000 9.796086 1.134018 -24.627996 -4.175714 -12.390199 37.127363 -1.229738 7.819613 -19.826908 -1.603765 7.986527 -22.673335 -1.151911 0.080707 22.387526 2.039072 -0.462874 7.309129 2.986859 -0.440095 -4.475473 -14.189617 -15.888177 -5.545750 16.311293 -22.742810 12.564274 4.927085 -10.673060 8.346361 0.000000 0.000000 0.000000 11.601092 6.357236 4.929021 16.443031 -26.117671 3.838957 5.976091 13.018650 -30.260738 0.000000 0.000000 0.000000 -7.125000 0.000000 0.000000 -28.127335 58.081537 9.490577 0.000000 0.000000 0.000000 -52.159316 -1.644330 -79.100509 -17.768744 -27.859822 -4.440759 -99.968935 -0.668604 -9.704195 0.000000 0.000000 0.000000 7.125000 0.000000 0.000000 76.446060 46.680026 -8.351079
